<svg width="16" height="16" viewBox="0 0 16 16" fill="none" xmlns="http://www.w3.org/2000/svg">
<g clip-path="url(#clip0_1_78)">
<path d="M7.99999 15.3333C3.9499 15.3333 0.666656 12.0501 0.666656 8C0.666656 3.94992 3.9499 0.666672 7.99999 0.666672C12.0501 0.666672 15.3333 3.94992 15.3333 8C15.3333 12.0501 12.0501 15.3333 7.99999 15.3333ZM7.99999 14C11.3137 14 14 11.3137 14 8C14 4.6863 11.3137 2.00001 7.99999 2.00001C4.68628 2.00001 1.99999 4.6863 1.99999 8C1.99999 11.3137 4.68628 14 7.99999 14ZM10.6667 6.33334C10.6667 7.5759 9.81681 8.61996 8.66666 8.91599V9.33334C8.66666 9.70153 8.36818 10 7.99999 10C7.6318 10 7.33332 9.70153 7.33332 9.33334V8.33334C7.33332 7.96515 7.6318 7.66667 7.99999 7.66667C8.73637 7.66667 9.33332 7.06972 9.33332 6.33334C9.33332 5.59696 8.73637 5 7.99999 5C7.26361 5 6.66666 5.59696 6.66666 6.33334C6.66666 6.70153 6.36818 7 5.99999 7C5.6318 7 5.33332 6.70153 5.33332 6.33334C5.33332 4.86058 6.52723 3.66667 7.99999 3.66667C9.47275 3.66667 10.6667 4.86058 10.6667 6.33334ZM7.33332 11.6667C7.33332 11.2985 7.6318 11 7.99999 11C8.36818 11 8.66666 11.2985 8.66666 11.6667C8.66666 12.0349 8.36818 12.3333 7.99999 12.3333C7.6318 12.3333 7.33332 12.0349 7.33332 11.6667Z" fill="#151516"/>
</g>
<defs>
<clipPath id="clip0_1_78">
<rect width="16" height="16" fill="white"/>
</clipPath>
</defs>
</svg>
