<svg width="18" height="18" viewBox="0 0 18 18" fill="none" xmlns="http://www.w3.org/2000/svg">
<path d="M9.00003 14.91L6.52875 16.2093C5.42885 16.7875 4.06844 16.3646 3.49019 15.2647C3.25993 14.8268 3.18047 14.3251 3.26412 13.8374L3.73609 11.0856L1.73679 9.13673C0.846949 8.26936 0.828741 6.84485 1.69612 5.95501C2.04151 5.60067 2.49408 5.37008 2.98377 5.29892L5.74673 4.89744L6.98237 2.39377C7.53232 1.27945 8.88148 0.821934 9.9958 1.37188C10.4395 1.59088 10.7987 1.95004 11.0177 2.39377L12.2533 4.89744L15.0163 5.29892C16.246 5.47761 17.098 6.61936 16.9194 7.84909C16.8482 8.33877 16.6176 8.79134 16.2633 9.13673L14.264 11.0856L14.7359 13.8374C14.946 15.0621 14.1234 16.2253 12.8987 16.4353C12.411 16.519 11.9093 16.4395 11.4713 16.2093L9.00003 14.91ZM8.65102 13.3989C8.86951 13.284 9.13054 13.284 9.34903 13.3989L12.1693 14.8816C12.3153 14.9583 12.4825 14.9848 12.6451 14.9569C13.0534 14.8869 13.3275 14.4992 13.2575 14.0909L12.7189 10.9505C12.6772 10.7072 12.7578 10.459 12.9346 10.2867L15.2162 8.0626C15.3344 7.94747 15.4112 7.79662 15.4349 7.63339C15.4945 7.22348 15.2105 6.8429 14.8006 6.78333L11.6474 6.32515C11.4031 6.28965 11.192 6.13623 11.0827 5.91487L9.67258 3.05762C9.59958 2.90971 9.47986 2.78999 9.33195 2.71699C8.96051 2.53367 8.51079 2.68618 8.32747 3.05762L6.91733 5.91487C6.80809 6.13623 6.59691 6.28965 6.35263 6.32515L3.19946 6.78333C3.03624 6.80705 2.88538 6.88392 2.77025 7.00203C2.48112 7.29864 2.48719 7.77348 2.7838 8.0626L5.06546 10.2867C5.24222 10.459 5.32288 10.7072 5.28116 10.9505L4.74253 14.0909C4.71465 14.2535 4.74113 14.4207 4.81789 14.5667C5.01064 14.9334 5.46411 15.0743 5.83074 14.8816L8.65102 13.3989Z" fill="#191847"/>
</svg>
